# xmcd CD database file
#
# Track frame offsets:
#	150
#	37290
#	70665
#	84477
#	148197
#	190967
#
# Disc length: 3202 seconds
#
# Revision: 0
# Processed by: cddbd v1.5.2PL0 Copyright (c) Steve Scherf et al.
# Submitted via: CDex 1.51
#
DISCID=560c8006
DTITLE=Breschi, Antonio - At The Edge Of The Night
DYEAR=1994
DGENRE=New Age
TTITLE0=An Earth For Mankind
TTITLE1=The Silence In The Sea
TTITLE2=Secret Of The Plains
TTITLE3=The Whispering Shore
TTITLE4=Sunbeams Among The Rock
TTITLE5=At The Edge Of The Night
EXTD=YEAR: 1994
EXTT0=
EXTT1=
EXTT2=
EXTT3=
EXTT4=
EXTT5=
PLAYORDER=
